<svg width="194" height="35" viewBox="0 0 194 35" fill="none" xmlns="http://www.w3.org/2000/svg">
<g clip-path="url(#clip0_216_4586)">
<path d="M2.04395 34.0362V28.8672H4.5883C5.0003 28.8672 5.34012 28.9501 5.60767 29.116C5.87518 29.2765 6.07318 29.4959 6.20161 29.7742C6.33536 30.0524 6.40226 30.3654 6.40226 30.7133C6.40226 31.0664 6.32735 31.3794 6.17752 31.6523C6.02769 31.9252 5.81365 32.1393 5.5354 32.2944C5.26252 32.4442 4.93613 32.5192 4.55619 32.5192H3.33619V34.0362H2.04395ZM3.33619 31.5239H4.26724C4.54016 31.5239 4.7435 31.449 4.87725 31.2992C5.01637 31.1494 5.08592 30.9513 5.08592 30.7052C5.08592 30.4376 5.02175 30.2317 4.89332 30.0872C4.77023 29.9373 4.57491 29.8624 4.30736 29.8624H3.33619V31.5239Z" fill="#D4D4D4"/>
<path d="M27.7803 34.0362L29.7548 28.8672H31.1514L33.1258 34.0362H31.7774L31.3119 32.8643H29.5862L29.1287 34.0362H27.7803ZM29.7628 31.9091H31.1353L30.445 30.1113L29.7628 31.9091Z" fill="#D4D4D4"/>
<path d="M55.4502 34.0362V28.8672H58.0349C58.645 28.8672 59.0944 29.0277 59.3835 29.3488C59.6721 29.6698 59.8167 30.1006 59.8167 30.641C59.8167 30.9888 59.7284 31.2939 59.5519 31.556C59.3754 31.8182 59.1345 32.0135 58.8296 32.142C58.9043 32.2008 58.9631 32.2677 59.0062 32.3426C59.0543 32.4122 59.1051 32.5112 59.1584 32.6396L59.7685 34.0362H58.4203L57.8422 32.7199C57.794 32.6075 57.7326 32.5272 57.6575 32.4791C57.5829 32.4256 57.4759 32.3988 57.3365 32.3988H56.7425V34.0362H55.4502ZM56.7425 31.4036H57.6976C57.9492 31.4036 58.1445 31.342 58.2839 31.2189C58.428 31.0905 58.5005 30.8979 58.5005 30.641C58.5005 30.122 58.2515 29.8625 57.7539 29.8625H56.7425V31.4036Z" fill="#D4D4D4"/>
<path d="M83.3422 34.0362V29.8625H81.8252V28.8672H86.1516V29.8625H84.6346V34.0362H83.3422Z" fill="#D4D4D4"/>
<path d="M108.402 34.0362V28.8672H109.51L111.709 31.9573V28.8672H113.01V34.0362H111.894L109.695 30.9541V34.0362H108.402Z" fill="#D4D4D4"/>
<path d="M135.499 34.0362V28.8672H139.312V29.8625H136.791V30.946H139.014L139.015 31.9573H136.791V33.0409H139.312V34.0362H135.499Z" fill="#D4D4D4"/>
<path d="M161.6 34.0362V28.8672H164.184C164.794 28.8672 165.243 29.0277 165.532 29.3488C165.822 29.6698 165.966 30.1006 165.966 30.641C165.966 30.9888 165.877 31.2938 165.701 31.556C165.524 31.8182 165.283 32.0135 164.979 32.142C165.054 32.2008 165.112 32.2677 165.155 32.3426C165.203 32.4122 165.254 32.5111 165.308 32.6396L165.917 34.0362H164.569L163.991 32.7199C163.943 32.6075 163.882 32.5272 163.807 32.479C163.732 32.4255 163.625 32.3988 163.486 32.3988H162.892V34.0362H161.6ZM162.892 31.4035H163.847C164.098 31.4035 164.294 31.342 164.433 31.2189C164.577 31.0905 164.649 30.8979 164.649 30.641C164.649 30.122 164.401 29.8625 163.903 29.8625H162.892V31.4035Z" fill="#D4D4D4"/>
<path d="M189.938 34.1147C189.596 34.1147 189.275 34.0879 188.975 34.0344C188.681 33.9863 188.427 33.914 188.213 33.8177V32.7181C188.448 32.8198 188.708 32.9027 188.992 32.9669C189.281 33.0311 189.553 33.0632 189.81 33.0632C190.131 33.0632 190.37 33.0338 190.525 32.9749C190.685 32.9161 190.765 32.7877 190.765 32.5897C190.765 32.4559 190.725 32.3489 190.645 32.2686C190.57 32.1883 190.444 32.1188 190.268 32.0599C190.097 31.9957 189.861 31.9208 189.562 31.8352C189.208 31.7282 188.927 31.6104 188.719 31.4821C188.51 31.3483 188.36 31.1877 188.269 31.0005C188.178 30.8132 188.133 30.5831 188.133 30.3102C188.133 29.8179 188.309 29.4407 188.662 29.1785C189.015 28.9163 189.537 28.7852 190.228 28.7852C190.527 28.7852 190.819 28.8092 191.103 28.8574C191.386 28.9002 191.616 28.9511 191.793 29.0099V30.1175C191.563 30.0266 191.33 29.9597 191.094 29.9169C190.864 29.8741 190.639 29.8527 190.42 29.8527C190.131 29.8527 189.896 29.8794 189.714 29.933C189.537 29.9865 189.449 30.1095 189.449 30.3022C189.449 30.4145 189.481 30.5055 189.545 30.5751C189.61 30.6393 189.719 30.6981 189.875 30.7516C190.035 30.8051 190.251 30.8694 190.525 30.9443C190.947 31.0566 191.271 31.1931 191.496 31.3536C191.72 31.5088 191.876 31.6907 191.961 31.8994C192.047 32.1027 192.09 32.3328 192.09 32.5897C192.09 33.0445 191.913 33.4137 191.56 33.6973C191.207 33.9756 190.666 34.1147 189.938 34.1147Z" fill="#D4D4D4"/>
<path d="M58.8583 9.88091C60.5885 8.95747 61.6387 7.32604 61.6387 5.35602C61.6387 2.1855 58.9513 -6.64362e-07 55.1514 0L38.5625 2.9005e-06V20.4391H55.7385C59.8159 20.4391 62.6893 18.1612 62.6893 14.8983C62.6893 12.5589 61.2064 10.712 58.8583 9.88091ZM54.2863 4.4018C55.5838 4.4018 56.3564 5.04822 56.3564 6.12554C56.3564 7.2029 55.5838 7.88011 54.2863 7.88011H43.6598V4.4018H54.2863ZM54.8734 16.0373H43.6598V12.2203H54.8734C56.4489 12.2203 57.4065 12.9283 57.4065 14.1288C57.4065 15.3293 56.4489 16.0373 54.8734 16.0373Z" fill="#D4D4D4"/>
<path d="M84.4804 20.4391H90.844L84.3874 12.5589C88.0329 12.2511 90.5042 9.88092 90.5042 6.58727C90.5042 2.67801 87.6313 -7.12982e-07 83.5534 0L66.3467 3.00854e-06V20.4391H71.4747V13.2054H78.5179L84.4804 20.4391ZM71.4747 4.4018H82.6883C84.2638 4.4018 85.2218 5.20211 85.2218 6.58727C85.2218 7.97247 84.2638 8.80356 82.6883 8.80356H71.4747V4.4018Z" fill="#D4D4D4"/>
<path d="M114.297 20.439H119.919L108.551 0L103.484 8.85833e-07L92.0547 20.4391H97.4607L99.1598 17.2685H112.598L114.297 20.439ZM101.446 12.9899L105.894 4.70961L110.312 12.9899H101.446Z" fill="#D4D4D4"/>
<path d="M137.389 9.56058e-07L130.809 14.7444L124.229 3.25703e-06L118.514 4.25627e-06L128.214 20.439H133.249L142.857 0L137.389 9.56058e-07Z" fill="#D4D4D4"/>
<path d="M150.695 16.0373V12.0049H159.87V7.60307H150.695V4.40178H165.523V0L145.566 3.48923e-06V20.4391H165.646V16.0373L150.695 16.0373Z" fill="#D4D4D4"/>
<path d="M189.244 8.20983e-07V15.3909L176.023 3.13274e-06L168.887 4.38048e-06V20.4391H173.582V5.04821L186.804 20.4391H193.94V0L189.244 8.20983e-07Z" fill="#D4D4D4"/>
<path d="M23.6632 0L0 4.13741e-06L1.83852e-06 10.5129L23.6632 0Z" fill="#D4D4D4"/>
<path d="M0 14.9009L9.67867e-07 20.4368H15.8413L24.4927 4.01953L0 14.9009Z" fill="#D4D4D4"/>
<path d="M20.5527 20.4387H30.3435V1.85938L20.5527 20.4387Z" fill="#D4D4D4"/>
</g>
<defs>
<clipPath id="clip0_216_4586">
<rect width="194" height="34.5363" fill="white"/>
</clipPath>
</defs>
</svg>
