<svg width="14" height="14" viewBox="0 0 14 14" fill="none" xmlns="http://www.w3.org/2000/svg">
<path d="M1.87 3.50123C2.77 3.50123 3.49 2.76998 3.49 1.88123C3.49 0.992481 2.75875 0.26123 1.87 0.26123C0.98125 0.26123 0.25 0.992481 0.25 1.88123C0.25 2.76998 0.98125 3.50123 1.87 3.50123ZM5.03125 4.72748V13.75H7.82125V9.29498C7.82125 8.11373 8.04625 6.97748 9.4975 6.97748C10.9488 6.97748 10.9488 8.32748 10.9488 9.36248V13.75H13.75V8.79998C13.75 6.36998 13.2325 4.50248 10.3975 4.50248C9.03625 4.50248 8.125 5.24498 7.75375 5.95373H7.72V4.71623H5.0425L5.03125 4.72748ZM0.475 4.72748H3.27625V13.75H0.475V4.72748Z" fill="white"/>
</svg>
