<svg width="44" height="44" viewBox="0 0 44 44" fill="none" xmlns="http://www.w3.org/2000/svg">
<rect width="44" height="44" rx="11" fill="#53B36F" fill-opacity="0.1"/>
<rect x="0.5" y="0.5" width="43" height="43" rx="10.5" stroke="#53B36F" stroke-opacity="0.26"/>
<path d="M33.8399 20.1158L31.4474 15.329C31.3592 15.1528 31.2372 14.9957 31.0884 14.8666C30.9395 14.7376 30.7667 14.6391 30.5798 14.5769C30.3929 14.5147 30.1955 14.4898 29.999 14.5039C29.8025 14.5179 29.6107 14.5705 29.4345 14.6587L27.103 15.824L22.1914 14.5246C22.0654 14.4918 21.9331 14.4918 21.807 14.5246L16.8955 15.824L14.5639 14.6587C14.3877 14.5705 14.1959 14.5179 13.9994 14.5039C13.8029 14.4898 13.6056 14.5147 13.4187 14.5769C13.2318 14.6391 13.0589 14.7376 12.9101 14.8666C12.7612 14.9957 12.6392 15.1528 12.5511 15.329L10.1586 20.1149C10.0704 20.2911 10.0178 20.4829 10.0038 20.6794C9.98978 20.8759 10.0146 21.0732 10.0768 21.2602C10.1391 21.4471 10.2375 21.6199 10.3666 21.7687C10.4956 21.9176 10.6527 22.0396 10.8289 22.1277L13.3602 23.3943L18.5624 27.1096C18.639 27.1641 18.7252 27.2038 18.8164 27.2268L24.8164 28.7268C24.9421 28.7583 25.0737 28.7567 25.1986 28.7222C25.3235 28.6877 25.4373 28.6215 25.5289 28.5299L29.2789 24.7799L30.6927 23.3662L33.1695 22.1277C33.5251 21.9497 33.7955 21.6378 33.9212 21.2605C34.0469 20.8833 34.0176 20.4716 33.8399 20.1158ZM28.6939 23.2443L25.468 20.6605C25.3235 20.5448 25.1412 20.4866 24.9564 20.4972C24.7715 20.5077 24.5971 20.5863 24.4667 20.7177C22.797 22.3996 20.9361 22.1868 19.7492 21.4368L23.803 17.4993H26.7852L29.3361 22.6002L28.6939 23.2443ZM24.7686 27.1687L19.3199 25.8065L14.7074 22.5121L17.3324 17.2621L21.9992 16.0255L22.918 16.2683L18.6992 20.3633L18.6917 20.3718C18.5329 20.5306 18.4118 20.723 18.3373 20.9349C18.2628 21.1468 18.2368 21.3727 18.2613 21.5959C18.2858 21.8192 18.3601 22.0341 18.4787 22.2248C18.5973 22.4155 18.7573 22.5771 18.9467 22.6977C20.8742 23.9287 23.2002 23.729 25.032 22.229L27.6242 24.3112L24.7686 27.1687ZM22.3574 30.4312C22.3168 30.5933 22.2233 30.7372 22.0917 30.8401C21.9601 30.943 21.7979 30.9991 21.6308 30.9993C21.5692 30.9993 21.5078 30.9918 21.448 30.9768L17.5377 29.999C17.4463 29.9764 17.3601 29.9366 17.2836 29.8818L14.8133 28.1174C14.6614 27.9981 14.5614 27.8249 14.534 27.6337C14.5067 27.4426 14.5541 27.2482 14.6665 27.0911C14.7788 26.9341 14.9474 26.8264 15.1372 26.7906C15.327 26.7547 15.5232 26.7934 15.6852 26.8987L18.0392 28.5805L21.8117 29.5218C22.0047 29.57 22.1705 29.693 22.2728 29.8635C22.3752 30.034 22.4056 30.2382 22.3574 30.4312Z" fill="#53B36F"/>
</svg>
