<svg width="61" height="25" viewBox="0 0 61 25" fill="none" xmlns="http://www.w3.org/2000/svg">
<path d="M0 3C0 1.34315 1.34315 0 3 0H55.7014C58.0333 0 59.4737 2.54391 58.2739 4.54349L54.4261 10.9565C53.8561 11.9066 53.8561 13.0934 54.4261 14.0435L58.2739 20.4565C59.4737 22.4561 58.0333 25 55.7014 25H3C1.34315 25 0 23.6569 0 22V3Z" fill="#53B36F"/>
<path d="M17.0092 10.0348C16.9131 9.73319 16.7839 9.46307 16.6214 9.22443C16.4624 8.98248 16.2718 8.77699 16.0497 8.60795C15.8277 8.43561 15.5741 8.30469 15.2891 8.2152C15.0073 8.12571 14.6974 8.08097 14.3594 8.08097C13.786 8.08097 13.2689 8.22846 12.8082 8.52344C12.3475 8.81842 11.983 9.25095 11.7145 9.82102C11.4493 10.3878 11.3168 11.0821 11.3168 11.9041C11.3168 12.7294 11.451 13.4271 11.7195 13.9972C11.9879 14.5672 12.3558 14.9998 12.8232 15.2947C13.2905 15.5897 13.8224 15.7372 14.419 15.7372C14.9725 15.7372 15.4548 15.6245 15.8658 15.3991C16.2801 15.1738 16.5999 14.8556 16.8253 14.4446C17.054 14.0303 17.1683 13.5431 17.1683 12.983L17.5661 13.0575H14.6527V11.7898H18.6548V12.9482C18.6548 13.8033 18.4725 14.5457 18.108 15.1754C17.7467 15.8018 17.2462 16.2857 16.6065 16.6271C15.9702 16.9685 15.241 17.1392 14.419 17.1392C13.4976 17.1392 12.6889 16.9271 11.9929 16.5028C11.3002 16.0786 10.7599 15.477 10.3722 14.6982C9.98438 13.916 9.79048 12.9879 9.79048 11.9141C9.79048 11.102 9.90317 10.3729 10.1286 9.72656C10.3539 9.08026 10.6705 8.53172 11.0781 8.08097C11.4891 7.62689 11.9714 7.28054 12.5249 7.0419C13.0817 6.79995 13.6899 6.67898 14.3494 6.67898C14.8996 6.67898 15.4117 6.76018 15.8857 6.92258C16.3629 7.08499 16.7872 7.31534 17.1584 7.61364C17.5329 7.91193 17.8428 8.26657 18.0881 8.67756C18.3333 9.08523 18.4991 9.53764 18.5852 10.0348H17.0092ZM23.7022 17.1541C22.9863 17.1541 22.3616 16.9901 21.8279 16.6619C21.2943 16.3338 20.88 15.8748 20.585 15.2848C20.2901 14.6948 20.1426 14.0054 20.1426 13.2166C20.1426 12.4245 20.2901 11.7318 20.585 11.1385C20.88 10.5452 21.2943 10.0845 21.8279 9.75639C22.3616 9.42827 22.9863 9.2642 23.7022 9.2642C24.4181 9.2642 25.0429 9.42827 25.5765 9.75639C26.1101 10.0845 26.5244 10.5452 26.8194 11.1385C27.1144 11.7318 27.2619 12.4245 27.2619 13.2166C27.2619 14.0054 27.1144 14.6948 26.8194 15.2848C26.5244 15.8748 26.1101 16.3338 25.5765 16.6619C25.0429 16.9901 24.4181 17.1541 23.7022 17.1541ZM23.7072 15.9062C24.1712 15.9062 24.5557 15.7836 24.8606 15.5384C25.1655 15.2931 25.3909 14.9666 25.5368 14.5589C25.6859 14.1513 25.7605 13.7022 25.7605 13.2116C25.7605 12.7244 25.6859 12.277 25.5368 11.8693C25.3909 11.4583 25.1655 11.1286 24.8606 10.88C24.5557 10.6314 24.1712 10.5071 23.7072 10.5071C23.2399 10.5071 22.8521 10.6314 22.5439 10.88C22.2389 11.1286 22.0119 11.4583 21.8627 11.8693C21.7169 12.277 21.644 12.7244 21.644 13.2116C21.644 13.7022 21.7169 14.1513 21.8627 14.5589C22.0119 14.9666 22.2389 15.2931 22.5439 15.5384C22.8521 15.7836 23.2399 15.9062 23.7072 15.9062ZM31.1435 17.169C30.6596 17.169 30.2221 17.0795 29.831 16.9006C29.4399 16.7183 29.13 16.4548 28.9013 16.1101C28.6759 15.7654 28.5632 15.3428 28.5632 14.8423C28.5632 14.4115 28.6461 14.0568 28.8118 13.7784C28.9775 13.5 29.2012 13.2796 29.483 13.1172C29.7647 12.9548 30.0795 12.8321 30.4276 12.7493C30.7756 12.6664 31.1302 12.6035 31.4915 12.5604C31.9489 12.5073 32.3201 12.4643 32.6051 12.4311C32.8902 12.3946 33.0973 12.3366 33.2266 12.2571C33.3558 12.1776 33.4205 12.0483 33.4205 11.8693V11.8345C33.4205 11.4003 33.2978 11.0639 33.0526 10.8253C32.8106 10.5866 32.4493 10.4673 31.9688 10.4673C31.4683 10.4673 31.0739 10.5784 30.7855 10.8004C30.5005 11.0192 30.3033 11.2628 30.1939 11.5312L28.7969 11.2131C28.9626 10.7491 29.2045 10.3745 29.5227 10.0895C29.8442 9.80114 30.2138 9.59233 30.6314 9.46307C31.049 9.33049 31.4882 9.2642 31.9489 9.2642C32.2538 9.2642 32.5769 9.30066 32.9183 9.37358C33.263 9.44318 33.5845 9.57244 33.8828 9.76136C34.1844 9.95028 34.4313 10.2204 34.6236 10.5717C34.8158 10.9197 34.9119 11.3722 34.9119 11.929V17H33.4602V15.956H33.4006C33.3045 16.1482 33.1603 16.3371 32.968 16.5227C32.7758 16.7083 32.5289 16.8625 32.2273 16.9851C31.9257 17.1077 31.5644 17.169 31.1435 17.169ZM31.4666 15.9759C31.8776 15.9759 32.2289 15.8946 32.5206 15.7322C32.8156 15.5698 33.0393 15.3577 33.1918 15.0959C33.3475 14.8307 33.4254 14.5473 33.4254 14.2457V13.2614C33.3724 13.3144 33.2696 13.3641 33.1172 13.4105C32.968 13.4536 32.7973 13.4917 32.6051 13.5249C32.4129 13.5547 32.2256 13.5829 32.0433 13.6094C31.861 13.6326 31.7086 13.6525 31.5859 13.669C31.2976 13.7055 31.0341 13.7668 30.7955 13.853C30.5601 13.9392 30.3712 14.0634 30.2287 14.2259C30.0895 14.3849 30.0199 14.5971 30.0199 14.8622C30.0199 15.2301 30.1558 15.5085 30.4276 15.6974C30.6993 15.883 31.0457 15.9759 31.4666 15.9759ZM38.3784 6.81818V17H36.8919V6.81818H38.3784ZM41.3576 17.0945C41.0858 17.0945 40.8522 16.9983 40.6566 16.8061C40.4611 16.6106 40.3633 16.3752 40.3633 16.1001C40.3633 15.8284 40.4611 15.5964 40.6566 15.4041C40.8522 15.2086 41.0858 15.1108 41.3576 15.1108C41.6294 15.1108 41.863 15.2086 42.0586 15.4041C42.2541 15.5964 42.3519 15.8284 42.3519 16.1001C42.3519 16.2824 42.3055 16.4498 42.2127 16.6023C42.1232 16.7514 42.0039 16.8707 41.8548 16.9602C41.7056 17.0497 41.5399 17.0945 41.3576 17.0945ZM41.3576 11.5362C41.0858 11.5362 40.8522 11.4384 40.6566 11.2429C40.4611 11.0473 40.3633 10.8137 40.3633 10.5419C40.3633 10.2701 40.4611 10.0381 40.6566 9.84588C40.8522 9.65033 41.0858 9.55256 41.3576 9.55256C41.6294 9.55256 41.863 9.65033 42.0586 9.84588C42.2541 10.0381 42.3519 10.2701 42.3519 10.5419C42.3519 10.7242 42.3055 10.8916 42.2127 11.044C42.1232 11.1932 42.0039 11.3125 41.8548 11.402C41.7056 11.4915 41.5399 11.5362 41.3576 11.5362Z" fill="white"/>
</svg>
